<svg width="14" height="15" viewBox="0 0 14 15" fill="none" xmlns="http://www.w3.org/2000/svg">
<path d="M9.4373 2.88536H1.99064C1.63701 2.88536 1.29788 2.74489 1.04783 2.49484C0.797779 2.24479 0.657303 1.90565 0.657303 1.55203C0.657303 1.19841 0.797779 0.859268 1.04783 0.609219C1.29788 0.359171 1.63701 0.218695 1.99064 0.218695H12.6573C12.8325 0.218167 13.0062 0.252294 13.1682 0.319113C13.3302 0.385933 13.4774 0.484125 13.6013 0.608042C13.7252 0.731958 13.8234 0.879154 13.8902 1.04116C13.957 1.20317 13.9912 1.37678 13.9906 1.55203V12.2187C13.9906 12.5723 13.8502 12.9115 13.6001 13.1615C13.3501 13.4116 13.0109 13.552 12.6573 13.552C12.3037 13.552 11.9645 13.4116 11.7145 13.1615C11.4644 12.9115 11.324 12.5723 11.324 12.2187V4.7707L2.2853 13.8094C2.03512 14.0594 1.69586 14.1998 1.34217 14.1996C0.988472 14.1995 0.649314 14.0589 0.399303 13.8087C0.149293 13.5585 0.00890827 13.2192 0.00903329 12.8656C0.00915831 12.5119 0.149782 12.1727 0.39997 11.9227L9.4373 2.88536Z" fill="#24282C"/>
</svg>
