<svg width="47" height="46" viewBox="0 0 47 46" fill="none" xmlns="http://www.w3.org/2000/svg">
<rect width="46" height="46" transform="translate(0.435852)" fill="#2B3238"/>
<path d="M36.4372 22.3109C36.4372 21.1598 36.3419 20.3198 36.1357 19.4487H22.723V24.6442H30.5959C30.4372 25.9354 29.5801 27.8798 27.6753 29.1864L27.6486 29.3604L31.8894 32.58L32.1833 32.6087C34.8816 30.1665 36.4372 26.5731 36.4372 22.3109Z" fill="#F4F4F4"/>
<path d="M22.7221 36C26.5792 36 29.8172 34.7555 32.1824 32.6089L27.6744 29.1865C26.4681 30.011 24.849 30.5866 22.7221 30.5866C18.9444 30.5866 15.738 28.1444 14.5951 24.7688L14.4276 24.7827L10.0179 28.1272L9.96021 28.2843C12.3094 32.8577 17.1348 36 22.7221 36Z" fill="#F4F4F4"/>
<path d="M14.5959 24.769C14.2943 23.8979 14.1198 22.9645 14.1198 22.0001C14.1198 21.0356 14.2943 20.1023 14.5801 19.2312L14.5721 19.0456L10.1071 15.6475L9.96103 15.7156C8.99282 17.6134 8.43726 19.7445 8.43726 22.0001C8.43726 24.2556 8.99282 26.3867 9.96103 28.2845L14.5959 24.769Z" fill="#F4F4F4"/>
<path d="M22.7222 13.4133C25.4047 13.4133 27.2142 14.5488 28.2459 15.4978L32.2777 11.64C29.8016 9.38445 26.5793 8 22.7222 8C17.1348 8 12.3094 11.1422 9.96021 15.7155L14.5792 19.2311C15.7381 15.8555 18.9444 13.4133 22.7222 13.4133Z" fill="#F4F4F4"/>
</svg>
