<svg width="88" height="88" viewBox="0 0 88 88" fill="none" xmlns="http://www.w3.org/2000/svg">
<rect width="88" height="88" rx="44" fill="#FFA500"/>
<path d="M53.3889 43.3601L39.8911 35.1111C39.7774 35.0417 39.6473 35.0037 39.514 35.0012C39.3808 34.9987 39.2493 35.0318 39.1331 35.0969C39.0169 35.1621 38.9202 35.2571 38.8528 35.3721C38.7855 35.487 38.75 35.6179 38.75 35.7511V52.249C38.75 52.3822 38.7855 52.513 38.8528 52.628C38.9202 52.743 39.0169 52.8379 39.1331 52.9031C39.2493 52.9683 39.3808 53.0013 39.514 52.9988C39.6473 52.9963 39.7774 52.9584 39.8911 52.8889L53.3889 44.64C53.4985 44.573 53.5891 44.479 53.652 44.3669C53.7148 44.2548 53.7478 44.1285 53.7478 44C53.7478 43.8716 53.7148 43.7452 53.652 43.6332C53.5891 43.5211 53.4985 43.4271 53.3889 43.3601Z" fill="white"/>
</svg>
