<svg width="47" height="46" viewBox="0 0 47 46" fill="none" xmlns="http://www.w3.org/2000/svg">
<rect width="46" height="46" transform="translate(0.435852)" fill="#2B3238"/>
<path d="M18.2246 34C14.9896 34 11.974 33.0591 9.43585 31.4356C11.5908 31.5751 15.3939 31.2411 17.7594 28.9848C14.2009 28.8215 12.5961 26.0923 12.3868 24.926C12.6891 25.0426 14.1312 25.1826 14.9452 24.856C10.8518 23.8296 10.2238 20.2373 10.3633 19.141C11.1308 19.6775 12.4333 19.8641 12.945 19.8174C9.13065 17.0882 10.5029 12.9828 11.1774 12.0963C13.9147 15.8887 18.0171 18.0186 23.0922 18.137C22.9965 17.7174 22.946 17.2804 22.946 16.8316C22.946 13.6109 25.5493 11 28.7605 11C30.4384 11 31.9503 11.7128 33.0115 12.8528C34.1328 12.5901 35.8202 11.9751 36.6451 11.4432C36.2293 12.9361 34.9348 14.1815 34.1518 14.6431C34.1454 14.6273 34.1583 14.6588 34.1518 14.6431C34.8396 14.539 36.7006 14.1814 37.4359 13.6826C37.0723 14.5213 35.6998 15.9157 34.5736 16.6964C34.7831 25.9381 27.7123 34 18.2246 34Z" fill="#F4F4F4"/>
</svg>
